<svg width="10" height="16" viewBox="0 0 10 16" fill="none" xmlns="http://www.w3.org/2000/svg">
<path d="M0.434339 0.448962C0.156149 0.73334 1.92541e-06 1.11803 1.87353e-06 1.51901C1.82165e-06 1.91999 0.156148 2.30468 0.434339 2.58906L5.7218 8.03795L0.434337 13.4109C0.156147 13.6953 2.48405e-07 14.08 1.96527e-07 14.481C1.44649e-07 14.882 0.156147 15.2667 0.434337 15.551C0.57319 15.6933 0.738387 15.8062 0.9204 15.8833C1.10241 15.9603 1.29764 16 1.49482 16C1.69199 16 1.88722 15.9603 2.06923 15.8833C2.25125 15.8062 2.41644 15.6933 2.5553 15.551L8.8883 9.11558C9.02829 8.97448 9.13941 8.80661 9.21524 8.62166C9.29107 8.4367 9.33011 8.23831 9.33011 8.03795C9.33011 7.83758 9.29107 7.63919 9.21524 7.45424C9.13941 7.26928 9.02829 7.10141 8.8883 6.96031L2.5553 0.448963C2.41645 0.306702 2.25125 0.193787 2.06923 0.11673C1.88722 0.0396741 1.692 2.24914e-07 1.49482 1.98704e-07C1.29764 1.72493e-07 1.10241 0.039674 0.920402 0.11673C0.738389 0.193787 0.573192 0.306702 0.434339 0.448962Z" fill="#FCFCFC"/>
</svg>
